<svg xmlns="http://www.w3.org/2000/svg" viewBox="0 0 1440 220" preserveAspectRatio="none" role="img" aria-label="city skyline">
  <g fill="#6aa6da">
    <rect x="0"    y="120" width="70"  height="100"/>
    <rect x="64"   y="90"  width="46"  height="130"/>
    <rect x="104"  y="140" width="60"  height="80"/>
    <rect x="158"  y="70"  width="40"  height="150"/>
    <rect x="180"  y="50"  width="14"  height="40"/>
    <rect x="192"  y="110" width="64"  height="110"/>
    <rect x="250"  y="150" width="72"  height="70"/>
    <rect x="316"  y="96"  width="52"  height="124"/>
    <rect x="362"  y="130" width="68"  height="90"/>
    <rect x="424"  y="60"  width="44"  height="160"/>
    <rect x="446"  y="40"  width="10"  height="24"/>
    <rect x="462"  y="118" width="80"  height="102"/>
    <rect x="536"  y="150" width="58"  height="70"/>
    <rect x="588"  y="84"  width="50"  height="136"/>
    <rect x="632"  y="128" width="74"  height="92"/>
    <rect x="700"  y="100" width="46"  height="120"/>
    <rect x="740"  y="146" width="66"  height="74"/>
    <rect x="800"  y="66"  width="42"  height="154"/>
    <rect x="818"  y="46"  width="10"  height="24"/>
    <rect x="836"  y="122" width="78"  height="98"/>
    <rect x="908"  y="152" width="60"  height="68"/>
    <rect x="962"  y="92"  width="50"  height="128"/>
    <rect x="1006" y="134" width="70"  height="86"/>
    <rect x="1070" y="104" width="44"  height="116"/>
    <rect x="1108" y="58"  width="46"  height="162"/>
    <rect x="1126" y="38"  width="10"  height="24"/>
    <rect x="1148" y="120" width="80"  height="100"/>
    <rect x="1222" y="150" width="62"  height="70"/>
    <rect x="1278" y="88"  width="50"  height="132"/>
    <rect x="1322" y="132" width="70"  height="88"/>
    <rect x="1386" y="108" width="54"  height="112"/>
  </g>
</svg>
